<mxfile host="app.diagrams.net" agent="Mozilla/5.0 (Windows NT 10.0; Win64; x64) AppleWebKit/537.36 (KHTML, like Gecko) Chrome/130.0.0.0 Safari/537.36" version="24.8.6">
  <diagram name="Pagina-1" id="kSSbNQ87wn5KEpR8BXEY">
    <mxGraphModel dx="1050" dy="625" grid="1" gridSize="10" guides="1" tooltips="1" connect="1" arrows="1" fold="1" page="1" pageScale="1" pageWidth="2339" pageHeight="3300" math="0" shadow="0">
      <root>
        <mxCell id="0" />
        <mxCell id="1" parent="0" />
        <mxCell id="0gEY0YFNkFgpbg-Ww85m-1" value="Film" style="swimlane;fontStyle=0;childLayout=stackLayout;horizontal=1;startSize=30;horizontalStack=0;resizeParent=1;resizeParentMax=0;resizeLast=0;collapsible=1;marginBottom=0;whiteSpace=wrap;html=1;" vertex="1" parent="1">
          <mxGeometry x="350" y="225" width="140" height="120" as="geometry" />
        </mxCell>
        <mxCell id="0gEY0YFNkFgpbg-Ww85m-2" value="&lt;b&gt;Titolo PK&lt;/b&gt;" style="text;strokeColor=none;fillColor=none;align=left;verticalAlign=middle;spacingLeft=4;spacingRight=4;overflow=hidden;points=[[0,0.5],[1,0.5]];portConstraint=eastwest;rotatable=0;whiteSpace=wrap;html=1;" vertex="1" parent="0gEY0YFNkFgpbg-Ww85m-1">
          <mxGeometry y="30" width="140" height="30" as="geometry" />
        </mxCell>
        <mxCell id="0gEY0YFNkFgpbg-Ww85m-3" value="Anno" style="text;strokeColor=none;fillColor=none;align=left;verticalAlign=middle;spacingLeft=4;spacingRight=4;overflow=hidden;points=[[0,0.5],[1,0.5]];portConstraint=eastwest;rotatable=0;whiteSpace=wrap;html=1;" vertex="1" parent="0gEY0YFNkFgpbg-Ww85m-1">
          <mxGeometry y="60" width="140" height="30" as="geometry" />
        </mxCell>
        <mxCell id="0gEY0YFNkFgpbg-Ww85m-4" value="Casa Prod" style="text;strokeColor=none;fillColor=none;align=left;verticalAlign=middle;spacingLeft=4;spacingRight=4;overflow=hidden;points=[[0,0.5],[1,0.5]];portConstraint=eastwest;rotatable=0;whiteSpace=wrap;html=1;" vertex="1" parent="0gEY0YFNkFgpbg-Ww85m-1">
          <mxGeometry y="90" width="140" height="30" as="geometry" />
        </mxCell>
        <mxCell id="0gEY0YFNkFgpbg-Ww85m-5" value="Artista" style="swimlane;fontStyle=0;childLayout=stackLayout;horizontal=1;startSize=30;horizontalStack=0;resizeParent=1;resizeParentMax=0;resizeLast=0;collapsible=1;marginBottom=0;whiteSpace=wrap;html=1;" vertex="1" parent="1">
          <mxGeometry x="710" y="225" width="140" height="120" as="geometry" />
        </mxCell>
        <mxCell id="0gEY0YFNkFgpbg-Ww85m-6" value="&lt;b&gt;Codice PK&lt;/b&gt;" style="text;strokeColor=none;fillColor=none;align=left;verticalAlign=middle;spacingLeft=4;spacingRight=4;overflow=hidden;points=[[0,0.5],[1,0.5]];portConstraint=eastwest;rotatable=0;whiteSpace=wrap;html=1;" vertex="1" parent="0gEY0YFNkFgpbg-Ww85m-5">
          <mxGeometry y="30" width="140" height="30" as="geometry" />
        </mxCell>
        <mxCell id="0gEY0YFNkFgpbg-Ww85m-7" value="Nome" style="text;strokeColor=none;fillColor=none;align=left;verticalAlign=middle;spacingLeft=4;spacingRight=4;overflow=hidden;points=[[0,0.5],[1,0.5]];portConstraint=eastwest;rotatable=0;whiteSpace=wrap;html=1;" vertex="1" parent="0gEY0YFNkFgpbg-Ww85m-5">
          <mxGeometry y="60" width="140" height="30" as="geometry" />
        </mxCell>
        <mxCell id="0gEY0YFNkFgpbg-Ww85m-8" value="Cognome" style="text;strokeColor=none;fillColor=none;align=left;verticalAlign=middle;spacingLeft=4;spacingRight=4;overflow=hidden;points=[[0,0.5],[1,0.5]];portConstraint=eastwest;rotatable=0;whiteSpace=wrap;html=1;" vertex="1" parent="0gEY0YFNkFgpbg-Ww85m-5">
          <mxGeometry y="90" width="140" height="30" as="geometry" />
        </mxCell>
        <mxCell id="0gEY0YFNkFgpbg-Ww85m-9" value="Cinema" style="swimlane;fontStyle=0;childLayout=stackLayout;horizontal=1;startSize=30;horizontalStack=0;resizeParent=1;resizeParentMax=0;resizeLast=0;collapsible=1;marginBottom=0;whiteSpace=wrap;html=1;" vertex="1" parent="1">
          <mxGeometry x="350" y="490" width="140" height="150" as="geometry" />
        </mxCell>
        <mxCell id="0gEY0YFNkFgpbg-Ww85m-10" value="&lt;b&gt;Nome PK&lt;/b&gt;" style="text;strokeColor=none;fillColor=none;align=left;verticalAlign=middle;spacingLeft=4;spacingRight=4;overflow=hidden;points=[[0,0.5],[1,0.5]];portConstraint=eastwest;rotatable=0;whiteSpace=wrap;html=1;" vertex="1" parent="0gEY0YFNkFgpbg-Ww85m-9">
          <mxGeometry y="30" width="140" height="30" as="geometry" />
        </mxCell>
        <mxCell id="0gEY0YFNkFgpbg-Ww85m-11" value="Tel" style="text;strokeColor=none;fillColor=none;align=left;verticalAlign=middle;spacingLeft=4;spacingRight=4;overflow=hidden;points=[[0,0.5],[1,0.5]];portConstraint=eastwest;rotatable=0;whiteSpace=wrap;html=1;" vertex="1" parent="0gEY0YFNkFgpbg-Ww85m-9">
          <mxGeometry y="60" width="140" height="30" as="geometry" />
        </mxCell>
        <mxCell id="0gEY0YFNkFgpbg-Ww85m-12" value="Orario" style="text;strokeColor=none;fillColor=none;align=left;verticalAlign=middle;spacingLeft=4;spacingRight=4;overflow=hidden;points=[[0,0.5],[1,0.5]];portConstraint=eastwest;rotatable=0;whiteSpace=wrap;html=1;" vertex="1" parent="0gEY0YFNkFgpbg-Ww85m-9">
          <mxGeometry y="90" width="140" height="30" as="geometry" />
        </mxCell>
        <mxCell id="0gEY0YFNkFgpbg-Ww85m-17" value="Indirizzo" style="text;strokeColor=none;fillColor=none;align=left;verticalAlign=middle;spacingLeft=4;spacingRight=4;overflow=hidden;points=[[0,0.5],[1,0.5]];portConstraint=eastwest;rotatable=0;whiteSpace=wrap;html=1;" vertex="1" parent="0gEY0YFNkFgpbg-Ww85m-9">
          <mxGeometry y="120" width="140" height="30" as="geometry" />
        </mxCell>
        <mxCell id="0gEY0YFNkFgpbg-Ww85m-19" value="Città" style="swimlane;fontStyle=0;childLayout=stackLayout;horizontal=1;startSize=30;horizontalStack=0;resizeParent=1;resizeParentMax=0;resizeLast=0;collapsible=1;marginBottom=0;whiteSpace=wrap;html=1;" vertex="1" parent="1">
          <mxGeometry x="710" y="520" width="140" height="90" as="geometry" />
        </mxCell>
        <mxCell id="0gEY0YFNkFgpbg-Ww85m-20" value="&lt;b&gt;Codice PK&lt;/b&gt;" style="text;strokeColor=none;fillColor=none;align=left;verticalAlign=middle;spacingLeft=4;spacingRight=4;overflow=hidden;points=[[0,0.5],[1,0.5]];portConstraint=eastwest;rotatable=0;whiteSpace=wrap;html=1;" vertex="1" parent="0gEY0YFNkFgpbg-Ww85m-19">
          <mxGeometry y="30" width="140" height="30" as="geometry" />
        </mxCell>
        <mxCell id="0gEY0YFNkFgpbg-Ww85m-21" value="Nome" style="text;strokeColor=none;fillColor=none;align=left;verticalAlign=middle;spacingLeft=4;spacingRight=4;overflow=hidden;points=[[0,0.5],[1,0.5]];portConstraint=eastwest;rotatable=0;whiteSpace=wrap;html=1;" vertex="1" parent="0gEY0YFNkFgpbg-Ww85m-19">
          <mxGeometry y="60" width="140" height="30" as="geometry" />
        </mxCell>
        <mxCell id="0gEY0YFNkFgpbg-Ww85m-23" value="&lt;b style=&quot;font-weight:normal;&quot; id=&quot;docs-internal-guid-f823f349-7fff-232e-2e69-2a5e14d6aef4&quot;&gt;&lt;p dir=&quot;ltr&quot; style=&quot;line-height:1.38;margin-top:0pt;margin-bottom:0pt;&quot;&gt;&lt;span style=&quot;font-size:11pt;font-family:Arial,sans-serif;color:#000000;background-color:transparent;font-weight:400;font-style:normal;font-variant:normal;text-decoration:none;vertical-align:baseline;white-space:pre;white-space:pre-wrap;&quot;&gt;Entità:&lt;/span&gt;&lt;/p&gt;&lt;p dir=&quot;ltr&quot; style=&quot;line-height:1.38;margin-top:0pt;margin-bottom:0pt;&quot;&gt;&lt;span style=&quot;font-size:11pt;font-family:Arial,sans-serif;color:#000000;background-color:transparent;font-weight:400;font-style:normal;font-variant:normal;text-decoration:none;vertical-align:baseline;white-space:pre;white-space:pre-wrap;&quot;&gt;Film (&lt;/span&gt;&lt;span style=&quot;font-size:11pt;font-family:Arial,sans-serif;color:#000000;background-color:transparent;font-weight:400;font-style:normal;font-variant:normal;text-decoration:underline;-webkit-text-decoration-skip:none;text-decoration-skip-ink:none;vertical-align:baseline;white-space:pre;white-space:pre-wrap;&quot;&gt;Titolo&lt;/span&gt;&lt;span style=&quot;font-size:11pt;font-family:Arial,sans-serif;color:#000000;background-color:transparent;font-weight:400;font-style:normal;font-variant:normal;text-decoration:none;vertical-align:baseline;white-space:pre;white-space:pre-wrap;&quot;&gt;, Anno, CasaProd, &lt;/span&gt;&lt;span style=&quot;font-size:11pt;font-family:Arial,sans-serif;color:#000000;background-color:transparent;font-weight:700;font-style:normal;font-variant:normal;text-decoration:none;vertical-align:baseline;white-space:pre;white-space:pre-wrap;&quot;&gt;CodiceArtista&lt;/span&gt;&lt;span style=&quot;font-size:11pt;font-family:Arial,sans-serif;color:#000000;background-color:transparent;font-weight:400;font-style:normal;font-variant:normal;text-decoration:none;vertical-align:baseline;white-space:pre;white-space:pre-wrap;&quot;&gt;)&lt;/span&gt;&lt;/p&gt;&lt;br&gt;&lt;p dir=&quot;ltr&quot; style=&quot;line-height:1.38;margin-top:0pt;margin-bottom:0pt;&quot;&gt;&lt;span style=&quot;font-size:11pt;font-family:Arial,sans-serif;color:#000000;background-color:transparent;font-weight:400;font-style:normal;font-variant:normal;text-decoration:none;vertical-align:baseline;white-space:pre;white-space:pre-wrap;&quot;&gt;Artista (&lt;/span&gt;&lt;span style=&quot;font-size:11pt;font-family:Arial,sans-serif;color:#000000;background-color:transparent;font-weight:400;font-style:normal;font-variant:normal;text-decoration:underline;-webkit-text-decoration-skip:none;text-decoration-skip-ink:none;vertical-align:baseline;white-space:pre;white-space:pre-wrap;&quot;&gt;CodiceArtista&lt;/span&gt;&lt;span style=&quot;font-size:11pt;font-family:Arial,sans-serif;color:#000000;background-color:transparent;font-weight:400;font-style:normal;font-variant:normal;text-decoration:none;vertical-align:baseline;white-space:pre;white-space:pre-wrap;&quot;&gt;, Nome, Cognome)&lt;/span&gt;&lt;/p&gt;&lt;br&gt;&lt;p dir=&quot;ltr&quot; style=&quot;line-height:1.38;margin-top:0pt;margin-bottom:0pt;&quot;&gt;&lt;span style=&quot;font-size:11pt;font-family:Arial,sans-serif;color:#000000;background-color:transparent;font-weight:400;font-style:normal;font-variant:normal;text-decoration:none;vertical-align:baseline;white-space:pre;white-space:pre-wrap;&quot;&gt;Cinema (&lt;/span&gt;&lt;span style=&quot;font-size:11pt;font-family:Arial,sans-serif;color:#000000;background-color:transparent;font-weight:400;font-style:normal;font-variant:normal;text-decoration:underline;-webkit-text-decoration-skip:none;text-decoration-skip-ink:none;vertical-align:baseline;white-space:pre;white-space:pre-wrap;&quot;&gt;Nome&lt;/span&gt;&lt;span style=&quot;font-size:11pt;font-family:Arial,sans-serif;color:#000000;background-color:transparent;font-weight:400;font-style:normal;font-variant:normal;text-decoration:none;vertical-align:baseline;white-space:pre;white-space:pre-wrap;&quot;&gt;, Tel, Orario, Indirizzo)&lt;/span&gt;&lt;/p&gt;&lt;br&gt;&lt;p dir=&quot;ltr&quot; style=&quot;line-height:1.38;margin-top:0pt;margin-bottom:0pt;&quot;&gt;&lt;span style=&quot;font-size:11pt;font-family:Arial,sans-serif;color:#000000;background-color:transparent;font-weight:400;font-style:normal;font-variant:normal;text-decoration:none;vertical-align:baseline;white-space:pre;white-space:pre-wrap;&quot;&gt;Città (&lt;/span&gt;&lt;span style=&quot;font-size:11pt;font-family:Arial,sans-serif;color:#000000;background-color:transparent;font-weight:400;font-style:normal;font-variant:normal;text-decoration:underline;-webkit-text-decoration-skip:none;text-decoration-skip-ink:none;vertical-align:baseline;white-space:pre;white-space:pre-wrap;&quot;&gt;Codice&lt;/span&gt;&lt;span style=&quot;font-size:11pt;font-family:Arial,sans-serif;color:#000000;background-color:transparent;font-weight:400;font-style:normal;font-variant:normal;text-decoration:none;vertical-align:baseline;white-space:pre;white-space:pre-wrap;&quot;&gt;, Nome)&lt;/span&gt;&lt;/p&gt;&lt;br&gt;&lt;/b&gt;" style="text;whiteSpace=wrap;html=1;" vertex="1" parent="1">
          <mxGeometry x="320" y="710" width="310" height="160" as="geometry" />
        </mxCell>
        <mxCell id="0gEY0YFNkFgpbg-Ww85m-24" value="" style="endArrow=ERzeroToMany;html=1;rounded=0;exitX=0.5;exitY=0;exitDx=0;exitDy=0;entryX=0.491;entryY=0.98;entryDx=0;entryDy=0;entryPerimeter=0;endFill=0;endSize=12;startSize=12;startArrow=ERone;startFill=0;" edge="1" parent="1" source="0gEY0YFNkFgpbg-Ww85m-9" target="0gEY0YFNkFgpbg-Ww85m-4">
          <mxGeometry width="50" height="50" relative="1" as="geometry">
            <mxPoint x="570" y="530" as="sourcePoint" />
            <mxPoint x="417" y="360" as="targetPoint" />
          </mxGeometry>
        </mxCell>
        <mxCell id="0gEY0YFNkFgpbg-Ww85m-25" value="" style="endArrow=ERzeroToMany;html=1;rounded=0;exitX=1;exitY=0.5;exitDx=0;exitDy=0;entryX=0;entryY=0.5;entryDx=0;entryDy=0;startArrow=ERone;startFill=0;endFill=0;endSize=12;startSize=12;" edge="1" parent="1" source="0gEY0YFNkFgpbg-Ww85m-3" target="0gEY0YFNkFgpbg-Ww85m-7">
          <mxGeometry width="50" height="50" relative="1" as="geometry">
            <mxPoint x="580" y="460" as="sourcePoint" />
            <mxPoint x="630" y="410" as="targetPoint" />
          </mxGeometry>
        </mxCell>
        <mxCell id="0gEY0YFNkFgpbg-Ww85m-26" value="" style="endArrow=ERzeroToMany;html=1;rounded=0;exitX=0.5;exitY=0;exitDx=0;exitDy=0;entryX=0.5;entryY=0;entryDx=0;entryDy=0;startArrow=ERzeroToMany;startFill=0;endFill=0;endSize=12;startSize=12;" edge="1" parent="1" source="0gEY0YFNkFgpbg-Ww85m-1" target="0gEY0YFNkFgpbg-Ww85m-5">
          <mxGeometry width="50" height="50" relative="1" as="geometry">
            <mxPoint x="580" y="460" as="sourcePoint" />
            <mxPoint x="630" y="410" as="targetPoint" />
            <Array as="points">
              <mxPoint x="420" y="160" />
              <mxPoint x="600" y="160" />
              <mxPoint x="780" y="160" />
            </Array>
          </mxGeometry>
        </mxCell>
        <mxCell id="0gEY0YFNkFgpbg-Ww85m-27" value="Regia" style="text;html=1;align=center;verticalAlign=middle;resizable=0;points=[];autosize=1;strokeColor=none;fillColor=none;" vertex="1" parent="1">
          <mxGeometry x="580" y="260" width="50" height="30" as="geometry" />
        </mxCell>
        <mxCell id="0gEY0YFNkFgpbg-Ww85m-28" value="Interpretazione" style="text;html=1;align=center;verticalAlign=middle;resizable=0;points=[];autosize=1;strokeColor=none;fillColor=none;" vertex="1" parent="1">
          <mxGeometry x="550" y="170" width="100" height="30" as="geometry" />
        </mxCell>
        <mxCell id="0gEY0YFNkFgpbg-Ww85m-29" value="Luogo" style="text;html=1;align=center;verticalAlign=middle;resizable=0;points=[];autosize=1;strokeColor=none;fillColor=none;" vertex="1" parent="1">
          <mxGeometry x="570" y="530" width="60" height="30" as="geometry" />
        </mxCell>
        <mxCell id="0gEY0YFNkFgpbg-Ww85m-30" value="Proiezione" style="text;html=1;align=center;verticalAlign=middle;resizable=0;points=[];autosize=1;strokeColor=none;fillColor=none;" vertex="1" parent="1">
          <mxGeometry x="430" y="400" width="80" height="30" as="geometry" />
        </mxCell>
        <mxCell id="0gEY0YFNkFgpbg-Ww85m-31" value="" style="endArrow=ERzeroToMany;html=1;rounded=0;exitX=1;exitY=0.5;exitDx=0;exitDy=0;entryX=0;entryY=0.5;entryDx=0;entryDy=0;startArrow=ERone;startFill=0;endFill=0;endSize=12;startSize=12;" edge="1" parent="1" source="0gEY0YFNkFgpbg-Ww85m-11" target="0gEY0YFNkFgpbg-Ww85m-20">
          <mxGeometry width="50" height="50" relative="1" as="geometry">
            <mxPoint x="580" y="560" as="sourcePoint" />
            <mxPoint x="630" y="510" as="targetPoint" />
          </mxGeometry>
        </mxCell>
        <mxCell id="0gEY0YFNkFgpbg-Ww85m-32" value="&lt;b id=&quot;docs-internal-guid-f823f349-7fff-232e-2e69-2a5e14d6aef4&quot; style=&quot;forced-color-adjust: none; color: rgb(0, 0, 0); font-family: Helvetica; font-size: 12px; font-style: normal; font-variant-ligatures: normal; font-variant-caps: normal; letter-spacing: normal; orphans: 2; text-align: left; text-indent: 0px; text-transform: none; widows: 2; word-spacing: 0px; -webkit-text-stroke-width: 0px; white-space: normal; background-color: rgb(251, 251, 251); text-decoration-thickness: initial; text-decoration-style: initial; text-decoration-color: initial; font-weight: normal;&quot;&gt;&lt;p dir=&quot;ltr&quot; style=&quot;forced-color-adjust: none; line-height: 1.38; margin-top: 0pt; margin-bottom: 0pt;&quot;&gt;&lt;span style=&quot;forced-color-adjust: none; font-size: 11pt; font-family: Arial, sans-serif; color: rgb(0, 0, 0); background-color: transparent; font-weight: 400; font-style: normal; font-variant: normal; text-decoration: none; vertical-align: baseline; white-space: pre-wrap;&quot;&gt;Relazioni:&lt;/span&gt;&lt;/p&gt;&lt;p dir=&quot;ltr&quot; style=&quot;forced-color-adjust: none; line-height: 1.38; margin-top: 0pt; margin-bottom: 0pt;&quot;&gt;&lt;span style=&quot;forced-color-adjust: none; font-size: 11pt; font-family: Arial, sans-serif; color: rgb(0, 0, 0); background-color: transparent; font-weight: 400; font-style: normal; font-variant: normal; text-decoration: none; vertical-align: baseline; white-space: pre-wrap;&quot;&gt;Interpretazione (&lt;/span&gt;&lt;span style=&quot;forced-color-adjust: none; font-size: 11pt; font-family: Arial, sans-serif; color: rgb(0, 0, 0); background-color: transparent; font-weight: 400; font-style: normal; font-variant: normal; vertical-align: baseline; white-space: pre-wrap;&quot;&gt;&lt;u&gt;Titolo&lt;/u&gt;&lt;/span&gt;&lt;span style=&quot;forced-color-adjust: none; font-size: 11pt; font-family: Arial, sans-serif; color: rgb(0, 0, 0); background-color: transparent; font-weight: 400; font-style: normal; font-variant: normal; text-decoration: none; vertical-align: baseline; white-space: pre-wrap;&quot;&gt;, &lt;/span&gt;&lt;span style=&quot;forced-color-adjust: none; font-size: 11pt; font-family: Arial, sans-serif; color: rgb(0, 0, 0); background-color: transparent; font-weight: 400; font-style: normal; font-variant: normal; vertical-align: baseline; white-space: pre-wrap;&quot;&gt;&lt;u&gt;Codice&lt;/u&gt;&lt;/span&gt;&lt;span style=&quot;forced-color-adjust: none; font-size: 11pt; font-family: Arial, sans-serif; color: rgb(0, 0, 0); background-color: transparent; font-weight: 400; font-style: normal; font-variant: normal; text-decoration: none; vertical-align: baseline; white-space: pre-wrap;&quot;&gt;)&lt;/span&gt;&lt;/p&gt;&lt;/b&gt;" style="text;whiteSpace=wrap;html=1;" vertex="1" parent="1">
          <mxGeometry x="720" y="760" width="230" height="50" as="geometry" />
        </mxCell>
      </root>
    </mxGraphModel>
  </diagram>
</mxfile>
